<?xml version="1.0" encoding="UTF-8"?>
<svg id="Layer_1" xmlns="http://www.w3.org/2000/svg" version="1.1" viewBox="0 0 905.35 187.79">
  <!-- Generator: Adobe Illustrator 30.5.1, SVG Export Plug-In . SVG Version: 2.1.4 Build 3)  -->
  <defs>
    <style>
      .st0 {
        fill: #fff;
      }
    </style>
  </defs>
  <g>
    <polygon class="st0" points="89.07 171.55 50.33 187.79 50.27 82.89 91.37 65.41 148.39 116.81 148.44 45.22 195.87 25.28 195.9 139.88 146.17 160.82 89.26 109 89.07 171.55"/>
    <polygon class="st0" points="46.52 187.1 0 164.67 0 60.97 46.56 82.99 46.52 187.1"/>
    <polygon class="st0" points="192.8 23.04 145.95 42.88 97.96 19.86 144.7 0 192.8 23.04"/>
    <polygon class="st0" points="48.39 80.33 2.82 58.81 43.45 41.56 88.53 63.23 48.39 80.33"/>
  </g>
  <g>
    <path class="st0" d="M406.86,25.47v114.04h-56.19l-54.58-56.21v56.21h-56.19V25.47h56.35l54.42,56.05V25.47h56.19Z"/>
    <path class="st0" d="M530.95,125.17h-59.56l-6.74,14.34h-59.4l53.3-114.04h85.25l53.3,114.04h-59.4l-6.74-14.34h-.01ZM516.18,93.4l-14.93-32.1-15.09,32.1h30.02Z"/>
    <path class="st0" d="M661.44,57.23v8.8h86.21v31.76h-86.21v9.93h87.97v31.76h-152.51V25.47h152.51v31.76h-87.97Z"/>
    <path class="st0" d="M905.31,97.14v42.36h-144.48V25.47h63.73v71.68h80.75Z"/>
  </g>
</svg>