<?xml version="1.0" encoding="UTF-8"?>
<svg id="Layer_1" xmlns="http://www.w3.org/2000/svg" version="1.1" viewBox="0 0 905.35 187.79">
  <!-- Generator: Adobe Illustrator 30.2.1, SVG Export Plug-In . SVG Version: 2.1.1 Build 1)  -->
  <defs>
    <style>
      .st0 {
        fill: #fff;
      }

      .st1 {
        fill: #8cff2e;
      }
    </style>
  </defs>
  <g>
    <polygon class="st0" points="89.07 171.55 50.33 187.79 50.27 82.89 91.37 65.41 148.39 116.81 148.44 45.22 195.87 25.28 195.9 139.88 146.17 160.82 89.26 109 89.07 171.55"/>
    <polygon class="st0" points="46.52 187.1 0 164.67 0 60.97 46.56 82.99 46.52 187.1"/>
    <polygon class="st0" points="192.8 23.04 145.95 42.88 97.96 19.86 144.7 0 192.8 23.04"/>
    <polygon class="st0" points="48.39 80.33 2.82 58.81 43.45 41.56 88.53 63.23 48.39 80.33"/>
  </g>
  <g>
    <path class="st0" d="M406.86,25.47v114.04h-56.19l-54.58-56.21v56.21h-56.19V25.47h56.35l54.42,56.05V25.47h56.19Z"/>
    <path class="st0" d="M530.95,125.17h-59.56l-6.74,14.34h-59.4l53.3-114.04h85.25l53.3,114.04h-59.4l-6.74-14.34h-.01ZM516.18,93.4l-14.93-32.1-15.09,32.1h30.02Z"/>
    <path class="st0" d="M661.44,57.23v8.8h86.21v31.76h-86.21v9.93h87.97v31.76h-152.51V25.47h152.51v31.76h-87.97Z"/>
    <path class="st0" d="M905.31,97.14v42.36h-144.48V25.47h63.73v71.68h80.75Z"/>
  </g>
  <g>
    <path class="st1" d="M245.57,148.09h11.56c6.35,0,9.61,3.29,8.8,8.2-.55,3.33-2.98,5.4-6.35,6.3v.02c3.53.46,5.94,3.06,5.21,7.52-.81,4.93-4.86,8.17-11.89,8.17h-12.33l4.99-30.22h0ZM252.85,173.95c3.67,0,6.11-1.6,6.57-4.46.44-2.74-1.25-4.4-4.83-4.4h-6.55l-1.49,8.86h6.29ZM254.85,160.88c3.06,0,5.27-1.71,5.72-4.36.41-2.53-1.11-4.07-4.2-4.07h-6.22l-1.4,8.44h6.11Z"/>
    <path class="st1" d="M270.59,156.89h4.93l-.59,3.55h.06c1.2-2.45,3.04-3.75,5.82-3.75.67,0,1.24.05,1.65.08l-.75,4.54c-.36-.06-1.38-.16-2.39-.16-2.44,0-4.59,1.68-5.13,5.03l-2.03,12.13h-5.11l3.55-21.42h0Z"/>
    <path class="st1" d="M282,182.62h2.53c1.38,0,2.15-.68,3.04-2.37l1.11-2.07-4.72-21.29h5.19l2.09,11.16c.27,1.58.52,3.17.75,4.72.75-1.58,1.52-3.17,2.31-4.72l5.78-11.16h5.57l-13.71,24.95c-1.79,3.29-4.26,4.94-7.3,4.94h-3.34l.68-4.16h.01Z"/>
    <path class="st1" d="M304.76,167.58c1.09-6.59,5.57-11.11,11.07-11.11,2.77,0,4.99,1.14,5.94,3.41h.06l.49-2.98h5.01l-3.55,21.42h-5.01l.52-3.23h-.06c-1.72,2.44-4.26,3.64-7.06,3.64-5.6,0-8.52-4.48-7.42-11.16h0ZM320.76,167.58c.68-4.16-1.06-6.87-4.38-6.87s-5.72,2.45-6.45,6.87c-.71,4.45,1,6.87,4.16,6.87,3.34,0,5.98-2.69,6.67-6.87Z"/>
    <path class="st1" d="M333.44,178.3h-5.11l3.53-21.42h5.03l-.51,3.06c1.82-2.33,4.07-3.48,6.87-3.48,4.62,0,7.42,3.15,6.49,8.64l-2.17,13.2h-5.13l2.11-12.73c.51-3.15-.79-4.62-3.39-4.62-2.84,0-5.15,1.76-5.76,5.42l-1.96,11.94h0Z"/>
    <path class="st1" d="M352.89,167.58c1.09-6.59,5.57-11.11,11.07-11.11,2.77,0,4.99,1.14,5.94,3.41h.06l.49-2.98h5.01l-3.55,21.42h-5.01l.52-3.23h-.06c-1.72,2.44-4.26,3.64-7.06,3.64-5.6,0-8.52-4.48-7.42-11.16h0ZM368.88,167.58c.68-4.16-1.06-6.87-4.38-6.87s-5.72,2.45-6.45,6.87c-.71,4.45,1,6.87,4.16,6.87,3.34,0,5.98-2.69,6.67-6.87Z"/>
    <path class="st1" d="M377.12,168.91c.43-7.63,5.57-12.51,12.43-12.51,4.64,0,8.06,2.19,8.06,6.38,0,5.34-5.43,6.7-15.47,6.87-.06,2.84.77,5.11,4.45,5.11,2.8,0,4.67-1.3,5.46-3.18h4.86c-1.5,4.32-5.25,7.2-10.7,7.2-5.78,0-9.5-3.15-9.07-9.88h-.01ZM392.73,162.85c0-1.49-1.28-2.39-3.69-2.39-3.94,0-5.8,2.52-6.51,5.64,8.17-.16,10.2-1.22,10.2-3.25h0Z"/>
    <path class="st1" d="M404.36,178.3h-5.11l5.01-30.22h5.11l-5.01,30.22Z"/>
    <path class="st1" d="M432.11,148.09h6.73l5.73,30.22h-5.72l-1.2-7.22h-11.72l-3.67,7.22h-5.97l15.8-30.22h.01ZM436.93,166.69l-.71-4.26c-.43-2.77-.85-5.68-1.36-9.5-1.76,3.81-3.15,6.71-4.53,9.5l-2.17,4.26h8.76Z"/>
    <path class="st1" d="M452.24,178.3h-5.11l5-30.22h5.11l-5.01,30.22h.01Z"/>
    <path class="st1" d="M471.45,148.09h5.35l-1.5,9.07-.87,5.32c1.79-1.76,3.59-3.51,5.41-5.27l9.55-9.1h6.78l-13.79,13.08,8.98,17.13h-5.9l-7.06-13.76-5.13,4.91-1.49,8.85h-5.35l5.01-30.22h-.01Z"/>
    <path class="st1" d="M499.09,178.3h-5.11l5.01-30.22h5.11l-1.96,11.91c1.76-2.31,3.97-3.53,6.86-3.53,4.48,0,7.38,2.96,6.45,8.46l-2.21,13.38h-5.13l2.09-12.57c.51-3.15-.79-4.78-3.53-4.78s-4.95,1.6-5.56,5.26l-2.01,12.11-.02-.02h0Z"/>
    <path class="st1" d="M519.39,156.89h5.27l.85,8.14c.24,2.55.43,5.29.6,7.95,1.11-2.66,2.23-5.4,3.34-7.95l3.63-8.14h4.72l.89,8.14c.27,2.53.46,5.26.68,7.91,1.08-2.66,2.12-5.37,3.23-7.91l3.58-8.14h5.54l-10.18,21.42h-5.32l-1.11-8.93c-.24-1.98-.43-4.07-.6-6.16-.89,2.09-1.76,4.18-2.68,6.16l-4.12,8.93h-5.27l-3.06-21.42h.01Z"/>
    <path class="st1" d="M550.99,167.58c1.09-6.59,5.57-11.11,11.07-11.11,2.77,0,4.99,1.14,5.94,3.41h.06l.49-2.98h5.01l-3.55,21.42h-5.01l.52-3.23h-.06c-1.72,2.44-4.26,3.64-7.06,3.64-5.6,0-8.52-4.48-7.42-11.16h0ZM566.98,167.58c.68-4.16-1.06-6.87-4.38-6.87s-5.72,2.45-6.45,6.87c-.71,4.45,1,6.87,4.16,6.87,3.34,0,5.98-2.69,6.67-6.87Z"/>
    <path class="st1" d="M578.12,156.89h4.93l-.59,3.55h.06c1.2-2.45,3.04-3.75,5.82-3.75.67,0,1.24.05,1.65.08l-.75,4.54c-.36-.06-1.38-.16-2.39-.16-2.44,0-4.59,1.68-5.13,5.03l-2.03,12.13h-5.11l3.55-21.42h0Z"/>
    <path class="st1" d="M593.04,156.89h5.11l-3.55,21.42h-5.11l3.55-21.42ZM593.53,150.78c.28-1.65,1.81-2.9,3.55-2.9s2.86,1.25,2.58,2.9c-.27,1.66-1.81,2.93-3.55,2.93s-2.84-1.25-2.58-2.93Z"/>
    <path class="st1" d="M599.44,174.75l13.06-13.6.02-.06h-10.83l.68-4.2h17.12l-.63,3.75-12.87,13.43v.06h10.77l-.68,4.18h-17.24l.6-3.55h-.01Z"/>
    <path class="st1" d="M623.81,156.89h4.95l-.55,3.45c1.72-2.66,4.26-3.88,6.79-3.88,2.93,0,5.1,1.65,5.68,4.02,1.52-2.5,4.24-4.02,7.3-4.02,4.18,0,6.98,2.84,6.14,7.87l-2.29,13.98h-5.13l2.23-13.59c.46-2.82-1-3.91-3.02-3.91-2.74,0-4.81,1.96-5.24,4.53l-2.15,12.98h-4.97l2.28-13.81c.38-2.33-.85-3.69-2.98-3.69-2.45,0-4.86,1.82-5.37,4.89l-2.09,12.62h-5.11l3.53-21.42Z"/>
    <path class="st1" d="M659.92,156.89h5.11l-3.55,21.42h-5.11l3.55-21.42ZM660.41,150.78c.28-1.65,1.81-2.9,3.55-2.9s2.86,1.25,2.58,2.9c-.27,1.66-1.81,2.93-3.55,2.93s-2.84-1.25-2.58-2.93Z"/>
    <path class="st1" d="M680.67,148.09h7.71l3.23,15.96c.28,1.65.75,4.62,1.08,6.98,1.09-2.37,2.58-5.43,3.39-7.12l8.46-15.82h7.77l-5.01,30.22h-5.27l2.55-15.5c.35-2.07.98-5.27,1.54-8.3-1.6,3.37-3.17,6.63-4.1,8.46l-8.31,15.33h-4.38l-3.25-15.5c-.33-1.76-.84-4.93-1.36-8.22-.43,3.04-.87,6.29-1.22,8.38l-2.53,15.33h-5.27l4.99-30.22h-.02Z"/>
    <path class="st1" d="M713.4,170.27l2.21-13.38h5.13l-2.09,12.57c-.51,3.15.79,4.78,3.53,4.78s4.95-1.6,5.56-5.26l2.01-12.11h5.13l-3.55,21.42h-5.05l.55-3.29c-1.87,2.41-4.24,3.71-7.2,3.71-4.48,0-7.14-2.96-6.22-8.46h0Z"/>
    <path class="st1" d="M740.99,178.3h-5.11l5-30.22h5.11l-1.96,11.91c1.76-2.31,3.97-3.53,6.86-3.53,4.48,0,7.38,2.96,6.45,8.46l-2.21,13.38h-5.13l2.09-12.57c.51-3.15-.79-4.78-3.53-4.78s-4.95,1.6-5.56,5.26l-2.01,12.11v-.02h-.01Z"/>
    <path class="st1" d="M760.43,167.58c1.09-6.59,5.57-11.11,11.07-11.11,2.77,0,4.99,1.14,5.94,3.41h.06l.49-2.98h5.01l-3.55,21.42h-5.01l.52-3.23h-.06c-1.72,2.44-4.26,3.64-7.06,3.64-5.6,0-8.52-4.48-7.42-11.16h0ZM776.43,167.58c.68-4.16-1.06-6.87-4.38-6.87s-5.72,2.45-6.45,6.87c-.71,4.45,1,6.87,4.16,6.87,3.34,0,5.98-2.69,6.67-6.87Z"/>
    <path class="st1" d="M787.54,156.89h4.95l-.55,3.45c1.72-2.66,4.26-3.88,6.79-3.88,2.93,0,5.1,1.65,5.68,4.02,1.52-2.5,4.24-4.02,7.3-4.02,4.18,0,6.98,2.84,6.14,7.87l-2.29,13.98h-5.13l2.23-13.59c.46-2.82-1-3.91-3.02-3.91-2.74,0-4.81,1.96-5.24,4.53l-2.15,12.98h-4.97l2.28-13.81c.38-2.33-.85-3.69-2.98-3.69-2.45,0-4.86,1.82-5.37,4.89l-2.09,12.62h-5.11l3.53-21.42Z"/>
    <path class="st1" d="M823.62,156.89h4.95l-.55,3.45c1.72-2.66,4.26-3.88,6.79-3.88,2.93,0,5.1,1.65,5.68,4.02,1.52-2.5,4.24-4.02,7.3-4.02,4.18,0,6.98,2.84,6.14,7.87l-2.29,13.98h-5.13l2.23-13.59c.46-2.82-1-3.91-3.02-3.91-2.74,0-4.81,1.96-5.24,4.53l-2.15,12.98h-4.97l2.28-13.81c.38-2.33-.85-3.69-2.98-3.69-2.45,0-4.86,1.82-5.37,4.89l-2.09,12.62h-5.11l3.53-21.42Z"/>
    <path class="st1" d="M856.94,167.58c1.09-6.59,5.57-11.11,11.07-11.11,2.77,0,4.99,1.14,5.94,3.41h.06l.49-2.98h5.01l-3.55,21.42h-5.01l.52-3.23h-.06c-1.72,2.44-4.26,3.64-7.06,3.64-5.6,0-8.52-4.48-7.42-11.16h0ZM872.95,167.58c.68-4.16-1.06-6.87-4.38-6.87s-5.72,2.45-6.45,6.87c-.71,4.45,1,6.87,4.16,6.87,3.34,0,5.98-2.69,6.67-6.87Z"/>
    <path class="st1" d="M881.08,169.97c0-6.71,4.16-13.51,10.97-13.51,2.93,0,5.15,1.28,6.14,3.67h.02l1.98-12.05h5.11l-4.99,30.22h-5.03l.51-3.17h-.02c-1.74,2.58-4.16,3.59-6.81,3.59-4.93,0-7.89-3.45-7.89-8.76v.02h.01ZM897.47,165.57c0-3.02-1.58-4.86-4.29-4.86-4.46,0-6.94,4.7-6.94,9.1,0,3.04,1.52,4.64,4.07,4.64,4.42,0,7.16-4.59,7.16-8.88Z"/>
  </g>
</svg>